<svg version="1.1" xmlns="http://www.w3.org/2000/svg" xmlns:xlink="http://www.w3.org/1999/xlink" width="684" height="512"><defs/><g><g transform="translate(10,6) scale(1,1)"><path fill="none" stroke="#000000" d="M 0 4 L 664 4 L 664 496 L 0 496 L 0 4" stroke-miterlimit="10"/></g><g transform="translate(10,6) scale(1,1)"><path fill="#ffffff" stroke="none" d="M 0 4 L 0 26 L 151.1162109375 26 L 162.1162109375 15 L 162.1162109375 4 L 0 4"/></g><g transform="translate(10,6) scale(1,1)"><path fill="none" stroke="#000000" d="M 0 4 L 0 26 L 151.1162109375 26 L 162.1162109375 15 L 162.1162109375 4 L 0 4 L 0 4" stroke-miterlimit="10"/></g><g transform="translate(10,6) scale(1,1)"><g><path fill="none" stroke="none"/><text fill="#000000" stroke="none" font-family="Arial" font-size="13px" font-style="normal" font-weight="normal" text-decoration="none" x="70.97900390625" y="21.5">_reserveTaxi</text></g></g><g transform="translate(10,6) scale(1,1)"><g><path fill="none" stroke="none"/><text fill="#000000" stroke="none" font-family="Arial" font-size="13px" font-style="normal" font-weight="bold" text-decoration="none" x="5" y="21.5">interaction</text></g></g><g transform="translate(10,6) scale(1,1)"><rect fill="#C0C0C0" stroke="none" x="119" y="47" width="103" height="39" opacity="0.2"/></g><g transform="translate(10,6) scale(1,1)"><rect fill="#ffffff" stroke="none" x="112" y="40" width="103" height="39"/></g><g transform="translate(10,6) scale(1,1)"><path fill="none" stroke="#000000" d="M 112 40 L 215 40 L 215 79 L 112 79 L 112 40 Z Z" stroke-miterlimit="10"/></g><g transform="translate(10,6) scale(1,1)"><g><path fill="none" stroke="none"/><text fill="#000000" stroke="none" font-family="Arial" font-size="13px" font-style="normal" font-weight="bold" text-decoration="none" x="149.7763671875" y="59.5">User</text></g></g><g transform="translate(10,6) scale(1,1)"><path fill="none" stroke="#000000" d="M 164.5 80 L 164.5 472" stroke-miterlimit="10" stroke-dasharray="3"/></g><g transform="translate(10,6) scale(1,1)"><rect fill="#C0C0C0" stroke="none" x="339" y="47" width="135" height="39" opacity="0.2"/></g><g transform="translate(10,6) scale(1,1)"><rect fill="#ffffff" stroke="none" x="332" y="40" width="135" height="39"/></g><g transform="translate(10,6) scale(1,1)"><path fill="none" stroke="#000000" d="M 332 40 L 467 40 L 467 79 L 332 79 L 332 40 Z Z" stroke-miterlimit="10"/></g><g transform="translate(10,6) scale(1,1)"><g><path fill="none" stroke="none"/><text fill="#000000" stroke="none" font-family="Arial" font-size="13px" font-style="normal" font-weight="bold" text-decoration="none" x="377.8291015625" y="59.5">System</text></g></g><g transform="translate(10,6) scale(1,1)"><path fill="none" stroke="#000000" d="M 400.5 80 L 400.5 480" stroke-miterlimit="10" stroke-dasharray="3"/></g><g transform="translate(10,6) scale(1,1)"><path fill="none" stroke="#000000" d="M 28 232 L 632 232 L 632 424 L 28 424 L 28 232" stroke-miterlimit="10"/></g><g transform="translate(10,6) scale(1,1)"><path fill="#ffffff" stroke="none" d="M 28 232 L 28 254 L 57.72998046875 254 L 68.72998046875 243 L 68.72998046875 232 L 28 232"/></g><g transform="translate(10,6) scale(1,1)"><path fill="none" stroke="#000000" d="M 28 232 L 28 254 L 57.72998046875 254 L 68.72998046875 243 L 68.72998046875 232 L 28 232 L 28 232" stroke-miterlimit="10"/></g><g transform="translate(10,6) scale(1,1)"><g><path fill="none" stroke="none"/><text fill="#000000" stroke="none" font-family="Arial" font-size="13px" font-style="normal" font-weight="bold" text-decoration="none" x="33" y="249.5">alt</text></g></g><g transform="translate(10,6) scale(1,1)"><g><path fill="none" stroke="none"/><text fill="#000000" stroke="none" font-family="Arial" font-size="13px" font-style="normal" font-weight="normal" text-decoration="none" x="47.5" y="282.5">[incorrect input]</text></g></g><g transform="translate(10,6) scale(1,1)"><path fill="none" stroke="#000000" d="M 28 333 L 632 333" stroke-miterlimit="10" stroke-dasharray="10,3"/></g><g transform="translate(10,6) scale(1,1)"><g><path fill="none" stroke="none"/><text fill="#000000" stroke="none" font-family="Arial" font-size="13px" font-style="normal" font-weight="normal" text-decoration="none" x="47.5" y="360.5">[correct input]</text></g></g><g transform="translate(10,6) scale(1,1)"><path fill="none" stroke="#000000" d="M 164 116 L 393 116" stroke-miterlimit="10"/></g><g transform="translate(10,6) scale(1,1)"><path fill="#000000" stroke="none" d="M 382.83732514237585 120.20951775601598 L 393 116 L 382.83732514237585 111.79048224398402"/></g><g transform="translate(10,6) scale(1,1)"><path fill="none" stroke="#000000" d="M 382.83732514237585 120.20951775601598 L 393 116 L 382.83732514237585 111.79048224398402 L 382.83732514237585 120.20951775601598" stroke-miterlimit="10"/></g><g transform="translate(10,6) scale(1,1)"><g><path fill="none" stroke="none"/><text fill="#000000" stroke="none" font-family="Arial" font-size="13px" font-style="normal" font-weight="normal" text-decoration="none" x="215" y="113">1 : makeReservation()</text></g></g><g transform="translate(10,6) scale(1,1)"><rect fill="#ffffff" stroke="none" x="393" y="116" width="13" height="296"/></g><g transform="translate(10,6) scale(1,1)"><path fill="none" stroke="#000000" d="M 393 116 L 406 116 L 406 412 L 393 412 L 393 116 Z Z" stroke-miterlimit="10"/></g><g transform="translate(10,6) scale(1,1)"><path fill="none" stroke="#000000" d="M 406 132 L 436 132 L 436 152 L 413 152" stroke-miterlimit="10"/></g><g transform="translate(10,6) scale(1,1)"><path fill="#000000" stroke="none" d="M 423.16267485762415 147.790482243984 L 413 152 L 423.16267485762415 156.209517756016"/></g><g transform="translate(10,6) scale(1,1)"><path fill="none" stroke="#000000" d="M 423.16267485762415 147.790482243984 L 413 152 L 423.16267485762415 156.209517756016 L 423.16267485762415 147.790482243984" stroke-miterlimit="10"/></g><g transform="translate(10,6) scale(1,1)"><g><path fill="none" stroke="none"/><text fill="#000000" stroke="none" font-family="Arial" font-size="13px" font-style="normal" font-weight="normal" text-decoration="none" x="442" y="169">2 : validation()</text></g></g><g transform="translate(10,6) scale(1,1)"><rect fill="#ffffff" stroke="none" x="400" y="152" width="13" height="56"/></g><g transform="translate(10,6) scale(1,1)"><path fill="none" stroke="#000000" d="M 400 152 L 413 152 L 413 208 L 400 208 L 400 152 Z Z" stroke-miterlimit="10"/></g><g transform="translate(10,6) scale(1,1)"><path fill="none" stroke="#000000" d="M 393 272 L 170 272" stroke-miterlimit="10"/></g><g transform="translate(10,6) scale(1,1)"><path fill="#000000" stroke="none" d="M 180.16267485762415 267.790482243984 L 170 272 L 180.16267485762415 276.209517756016"/></g><g transform="translate(10,6) scale(1,1)"><path fill="none" stroke="#000000" d="M 180.16267485762415 267.790482243984 L 170 272 L 180.16267485762415 276.209517756016 L 180.16267485762415 267.790482243984" stroke-miterlimit="10"/></g><g transform="translate(10,6) scale(1,1)"><g><path fill="none" stroke="none"/><text fill="#000000" stroke="none" font-family="Arial" font-size="13px" font-style="normal" font-weight="normal" text-decoration="none" x="211" y="289">3 : showErrorMessage()</text></g></g><g transform="translate(10,6) scale(1,1)"><rect fill="#ffffff" stroke="none" x="157" y="272" width="13" height="28"/></g><g transform="translate(10,6) scale(1,1)"><path fill="none" stroke="#000000" d="M 157 272 L 170 272 L 170 300 L 157 300 L 157 272 Z Z" stroke-miterlimit="10"/></g><g transform="translate(10,6) scale(1,1)"><path fill="none" stroke="#000000" d="M 406 348 L 436 348 L 436 368 L 413 368" stroke-miterlimit="10"/></g><g transform="translate(10,6) scale(1,1)"><path fill="#000000" stroke="none" d="M 423.16267485762415 363.790482243984 L 413 368 L 423.16267485762415 372.209517756016"/></g><g transform="translate(10,6) scale(1,1)"><path fill="none" stroke="#000000" d="M 423.16267485762415 363.790482243984 L 413 368 L 423.16267485762415 372.209517756016 L 423.16267485762415 363.790482243984" stroke-miterlimit="10"/></g><g transform="translate(10,6) scale(1,1)"><g><path fill="none" stroke="none"/><text fill="#000000" stroke="none" font-family="Arial" font-size="13px" font-style="normal" font-weight="normal" text-decoration="none" x="444" y="365">4 : updateReservationQueue()</text></g></g><g transform="translate(10,6) scale(1,1)"><rect fill="#ffffff" stroke="none" x="400" y="368" width="13" height="28"/></g><g transform="translate(10,6) scale(1,1)"><path fill="none" stroke="#000000" d="M 400 368 L 413 368 L 413 396 L 400 396 L 400 368 Z Z" stroke-miterlimit="10"/></g><g transform="translate(10,6) scale(1,1)"><path fill="none" stroke="#000000" d="M 393 411 L 164 411" stroke-miterlimit="10" stroke-dasharray="3"/></g><g transform="translate(10,6) scale(1,1)"><path fill="none" stroke="#000000" d="M 174.16267485762415 406.790482243984 L 164 411 L 174.16267485762415 415.209517756016" stroke-miterlimit="10"/></g><g transform="translate(10,6) scale(1,1)"><g><path fill="none" stroke="none"/><text fill="#000000" stroke="none" font-family="Arial" font-size="13px" font-style="normal" font-weight="normal" text-decoration="none" x="210" y="405">5 : reservationAccepted</text></g></g></g></svg>