<svg version="1.1" xmlns="http://www.w3.org/2000/svg" xmlns:xlink="http://www.w3.org/1999/xlink" width="492" height="676"><defs/><g><g transform="translate(-6,-30) scale(1,1)"><rect fill="#ffffff" stroke="none" x="248" y="40" width="240" height="21"/></g><g transform="translate(-6,-30) scale(1,1)"><path fill="none" stroke="#000000" d="M 248 40 L 488 40 L 488 61 L 248 61 L 248 40 Z Z" stroke-miterlimit="10" stroke-width="2"/></g><g transform="translate(-6,-30) scale(1,1)"><path fill="none" stroke="#000000" d="M 248 696 L 248 40 L 488 40 L 488 696" stroke-miterlimit="10" stroke-width="2"/></g><g transform="translate(-6,-30) scale(1,1)"><g><path fill="none" stroke="none"/><text fill="#000000" stroke="none" font-family="Arial" font-size="13px" font-style="normal" font-weight="normal" text-decoration="none" x="350.667724609375" y="57">Driver</text></g></g><g transform="translate(-6,-30) scale(1,1)"><rect fill="#ffffff" stroke="none" x="16" y="40" width="231" height="21"/></g><g transform="translate(-6,-30) scale(1,1)"><path fill="none" stroke="#000000" d="M 16 40 L 247 40 L 247 61 L 16 61 L 16 40 Z Z" stroke-miterlimit="10" stroke-width="2"/></g><g transform="translate(-6,-30) scale(1,1)"><path fill="none" stroke="#000000" d="M 16 696 L 16 40 L 247 40 L 247 696" stroke-miterlimit="10" stroke-width="2"/></g><g transform="translate(-6,-30) scale(1,1)"><g><path fill="none" stroke="none"/><text fill="#000000" stroke="none" font-family="Arial" font-size="13px" font-style="normal" font-weight="normal" text-decoration="none" x="109.8291015625" y="57">System</text></g></g><g transform="translate(-6,-30) scale(1,1)"><path fill="none" stroke="#000000" d="M 371 189 L 371 256" stroke-miterlimit="10"/></g><g transform="translate(-6,-30) scale(1,1)"><path fill="none" stroke="#000000" d="M 366.790482243984 245.83732514237585 L 371 256 L 375.209517756016 245.83732514237585" stroke-miterlimit="10"/></g><g transform="translate(-6,-30) scale(1,1)"><path fill="none" stroke="#000000" d="M 122 91 L 122 136" stroke-miterlimit="10"/></g><g transform="translate(-6,-30) scale(1,1)"><path fill="none" stroke="#000000" d="M 117.79048224398402 125.83732514237585 L 122 136 L 126.20951775601598 125.83732514237585" stroke-miterlimit="10"/></g><g transform="translate(-6,-30) scale(1,1)"><path fill="none" stroke="#000000" d="M 123 240 L 123 189" stroke-miterlimit="10"/></g><g transform="translate(-6,-30) scale(1,1)"><path fill="none" stroke="#000000" d="M 127.20951775601598 199.16267485762415 L 123 189 L 118.79048224398402 199.16267485762415" stroke-miterlimit="10"/></g><g transform="translate(-6,-30) scale(1,1)"><path fill="none" stroke="#000000" d="M 360 265 L 183 265" stroke-miterlimit="10"/></g><g transform="translate(-6,-30) scale(1,1)"><path fill="none" stroke="#000000" d="M 193.16267485762415 260.790482243984 L 183 265 L 193.16267485762415 269.209517756016" stroke-miterlimit="10"/></g><g transform="translate(-6,-30) scale(1,1)"><g><path fill="none" stroke="none"/><text fill="#000000" stroke="none" font-family="Arial" font-size="13px" font-style="normal" font-weight="normal" text-decoration="none" x="255" y="261">decline or timeout</text></g></g><g transform="translate(-6,-30) scale(1,1)"><path fill="none" stroke="#000000" d="M 209 162 L 287 162" stroke-miterlimit="10"/></g><g transform="translate(-6,-30) scale(1,1)"><path fill="none" stroke="#000000" d="M 276.83732514237585 166.209517756016 L 287 162 L 276.83732514237585 157.790482243984" stroke-miterlimit="10"/></g><g transform="translate(-6,-30) scale(1,1)"><path fill="none" stroke="#000000" d="M 123 397 L 123 424 L 371 424 L 371 448" stroke-miterlimit="10"/></g><g transform="translate(-6,-30) scale(1,1)"><path fill="none" stroke="#000000" d="M 366.790482243984 437.83732514237585 L 371 448 L 375.209517756016 437.83732514237585" stroke-miterlimit="10"/></g><g transform="translate(-6,-30) scale(1,1)"><path fill="none" stroke="#000000" d="M 371 495 L 371 552" stroke-miterlimit="10"/></g><g transform="translate(-6,-30) scale(1,1)"><path fill="none" stroke="#000000" d="M 366.790482243984 541.8373251423759 L 371 552 L 375.209517756016 541.8373251423759" stroke-miterlimit="10"/></g><g transform="translate(-6,-30) scale(1,1)"><path fill="#C0C0C0" stroke="none" d="M 65 143 L 205 143 Q 215 143 215 153 L 215 186 Q 215 196 205 196 L 65 196 Q 55 196 55 186 L 55 153 Q 55 143 65 143 Z" opacity="0.2"/></g><g transform="translate(-6,-30) scale(1,1)"><path fill="#ffffff" stroke="none" d="M 58 136 L 198 136 Q 208 136 208 146 L 208 179 Q 208 189 198 189 L 58 189 Q 48 189 48 179 L 48 146 Q 48 136 58 136 Z"/></g><g transform="translate(-6,-30) scale(1,1)"><path fill="none" stroke="#000000" d="M 58 136 L 198 136 Q 208 136 208 146 L 208 179 Q 208 189 198 189 L 58 189 Q 48 189 48 179 L 48 146 Q 48 136 58 136 Z" stroke-miterlimit="10"/></g><g transform="translate(-6,-30) scale(1,1)"><g><path fill="none" stroke="none"/><text fill="#000000" stroke="none" font-family="Arial" font-size="13px" font-style="normal" font-weight="bold" text-decoration="none" x="68.030517578125" y="155.5">Select first taxi in the</text><text fill="#000000" stroke="none" font-family="Arial" font-size="13px" font-style="normal" font-weight="bold" text-decoration="none" x="109.925048828125" y="168.5">queue</text></g></g><g transform="translate(-6,-30) scale(1,1)"><path fill="#C0C0C0" stroke="none" d="M 119 88.5 C 119 83.2532944 123.2532944 79 128.5 79 C 133.7467056 79 138 83.2532944 138 88.5 C 138 93.7467056 133.7467056 98 128.5 98 C 123.2532944 98 119 93.7467056 119 88.5 Z" opacity="0.2"/></g><g transform="translate(-6,-30) scale(1,1)"><path fill="#000000" stroke="none" d="M 112 81.5 C 112 76.2532944 116.2532944 72 121.5 72 C 126.7467056 72 131 76.2532944 131 81.5 C 131 86.7467056 126.7467056 91 121.5 91 C 116.2532944 91 112 86.7467056 112 81.5 Z"/></g><g transform="translate(-6,-30) scale(1,1)"><path fill="#C0C0C0" stroke="none" d="M 305 143 L 446.40087890625 143 Q 456.40087890625 143 456.40087890625 153 L 456.40087890625 186 Q 456.40087890625 196 446.40087890625 196 L 305 196 Q 295 196 295 186 L 295 153 Q 295 143 305 143 Z" opacity="0.2"/></g><g transform="translate(-6,-30) scale(1,1)"><path fill="#ffffff" stroke="none" d="M 298 136 L 439.40087890625 136 Q 449.40087890625 136 449.40087890625 146 L 449.40087890625 179 Q 449.40087890625 189 439.40087890625 189 L 298 189 Q 288 189 288 179 L 288 146 Q 288 136 298 136 Z"/></g><g transform="translate(-6,-30) scale(1,1)"><path fill="none" stroke="#000000" d="M 298 136 L 439.40087890625 136 Q 449.40087890625 136 449.40087890625 146 L 449.40087890625 179 Q 449.40087890625 189 439.40087890625 189 L 298 189 Q 288 189 288 179 L 288 146 Q 288 136 298 136 Z" stroke-miterlimit="10"/></g><g transform="translate(-6,-30) scale(1,1)"><g><path fill="none" stroke="none"/><text fill="#000000" stroke="none" font-family="Arial" font-size="13px" font-style="normal" font-weight="bold" text-decoration="none" x="331.845947265625" y="155.5">Ride request</text><text fill="#000000" stroke="none" font-family="Arial" font-size="13px" font-style="normal" font-weight="bold" text-decoration="none" x="337.62548828125" y="168.5">notification</text></g></g><g transform="translate(-6,-30) scale(1,1)"><path fill="#C0C0C0" stroke="none" d="M 81 247 L 180 247 Q 190 247 190 257 L 190 284 Q 190 294 180 294 L 81 294 Q 71 294 71 284 L 71 257 Q 71 247 81 247 Z" opacity="0.2"/></g><g transform="translate(-6,-30) scale(1,1)"><path fill="#ffffff" stroke="none" d="M 74 240 L 173 240 Q 183 240 183 250 L 183 277 Q 183 287 173 287 L 74 287 Q 64 287 64 277 L 64 250 Q 64 240 74 240 Z"/></g><g transform="translate(-6,-30) scale(1,1)"><path fill="none" stroke="#000000" d="M 74 240 L 173 240 Q 183 240 183 250 L 183 277 Q 183 287 173 287 L 74 287 Q 64 287 64 277 L 64 250 Q 64 240 74 240 Z" stroke-miterlimit="10"/></g><g transform="translate(-6,-30) scale(1,1)"><g><path fill="none" stroke="none"/><text fill="#000000" stroke="none" font-family="Arial" font-size="13px" font-style="normal" font-weight="bold" text-decoration="none" x="82.29736328125" y="259.5">update Queue</text></g></g><g transform="translate(-6,-30) scale(1,1)"><path fill="#C0C0C0" stroke="none" d="M 367 272.5 L 378.5 263 L 389 272.5 L 378.5 281 L 367 272.5" opacity="0.2"/></g><g transform="translate(-6,-30) scale(1,1)"><path fill="#ffffff" stroke="none" d="M 360 265 L 371 256 L 382 265 L 371 274 L 360 265"/></g><g transform="translate(-6,-30) scale(1,1)"><path fill="none" stroke="#000000" d="M 360 265 L 371 256 L 382 265 L 371 274 L 360 265 L 360 265" stroke-miterlimit="10"/></g><g transform="translate(-6,-30) scale(1,1)"><path fill="#C0C0C0" stroke="none" d="M 321 455 L 436 455 Q 446 455 446 465 L 446 492 Q 446 502 436 502 L 321 502 Q 311 502 311 492 L 311 465 Q 311 455 321 455 Z" opacity="0.2"/></g><g transform="translate(-6,-30) scale(1,1)"><path fill="#ffffff" stroke="none" d="M 314 448 L 429 448 Q 439 448 439 458 L 439 485 Q 439 495 429 495 L 314 495 Q 304 495 304 485 L 304 458 Q 304 448 314 448 Z"/></g><g transform="translate(-6,-30) scale(1,1)"><path fill="none" stroke="#000000" d="M 314 448 L 429 448 Q 439 448 439 458 L 439 485 Q 439 495 429 495 L 314 495 Q 304 495 304 485 L 304 458 Q 304 448 314 448 Z" stroke-miterlimit="10"/></g><g transform="translate(-6,-30) scale(1,1)"><g><path fill="none" stroke="none"/><text fill="#000000" stroke="none" font-family="Arial" font-size="13px" font-style="normal" font-weight="bold" text-decoration="none" x="345.128662109375" y="467.5">Start ride</text></g></g><g transform="translate(-6,-30) scale(1,1)"><path fill="none" stroke="#000000" d="M 371 600 L 371 640" stroke-miterlimit="10"/></g><g transform="translate(-6,-30) scale(1,1)"><path fill="none" stroke="#000000" d="M 366.790482243984 629.8373251423759 L 371 640 L 375.209517756016 629.8373251423759" stroke-miterlimit="10"/></g><g transform="translate(-6,-30) scale(1,1)"><path fill="none" stroke="#000000" d="M 382 264 L 416 264 L 416 368 L 184 368" stroke-miterlimit="10"/></g><g transform="translate(-6,-30) scale(1,1)"><path fill="none" stroke="#000000" d="M 194.16267485762415 363.790482243984 L 184 368 L 194.16267485762415 372.209517756016" stroke-miterlimit="10"/></g><g transform="translate(-6,-30) scale(1,1)"><g><path fill="none" stroke="none"/><text fill="#000000" stroke="none" font-family="Arial" font-size="13px" font-style="normal" font-weight="normal" text-decoration="none" x="282" y="364">accept</text></g></g><g transform="translate(-6,-30) scale(1,1)"><path fill="#C0C0C0" stroke="none" d="M 81 351 L 180.525390625 351 Q 190.525390625 351 190.525390625 361 L 190.525390625 394 Q 190.525390625 404 180.525390625 404 L 81 404 Q 71 404 71 394 L 71 361 Q 71 351 81 351 Z" opacity="0.2"/></g><g transform="translate(-6,-30) scale(1,1)"><path fill="#ffffff" stroke="none" d="M 74 344 L 173.525390625 344 Q 183.525390625 344 183.525390625 354 L 183.525390625 387 Q 183.525390625 397 173.525390625 397 L 74 397 Q 64 397 64 387 L 64 354 Q 64 344 74 344 Z"/></g><g transform="translate(-6,-30) scale(1,1)"><path fill="none" stroke="#000000" d="M 74 344 L 173.525390625 344 Q 183.525390625 344 183.525390625 354 L 183.525390625 387 Q 183.525390625 397 173.525390625 397 L 74 397 Q 64 397 64 387 L 64 354 Q 64 344 74 344 Z" stroke-miterlimit="10"/></g><g transform="translate(-6,-30) scale(1,1)"><g><path fill="none" stroke="none"/><text fill="#000000" stroke="none" font-family="Arial" font-size="13px" font-style="normal" font-weight="bold" text-decoration="none" x="88.71728515625" y="363.5">set status to</text><text fill="#000000" stroke="none" font-family="Arial" font-size="13px" font-style="normal" font-weight="bold" text-decoration="none" x="110.03271484375" y="376.5">busy</text></g></g><g transform="translate(-6,-30) scale(1,1)"><path fill="#C0C0C0" stroke="none" d="M 321 559 L 436 559 Q 446 559 446 569 L 446 597 Q 446 607 436 607 L 321 607 Q 311 607 311 597 L 311 569 Q 311 559 321 559 Z" opacity="0.2"/></g><g transform="translate(-6,-30) scale(1,1)"><path fill="#ffffff" stroke="none" d="M 314 552 L 429 552 Q 439 552 439 562 L 439 590 Q 439 600 429 600 L 314 600 Q 304 600 304 590 L 304 562 Q 304 552 314 552 Z"/></g><g transform="translate(-6,-30) scale(1,1)"><path fill="none" stroke="#000000" d="M 314 552 L 429 552 Q 439 552 439 562 L 439 590 Q 439 600 429 600 L 314 600 Q 304 600 304 590 L 304 562 Q 304 552 314 552 Z" stroke-miterlimit="10"/></g><g transform="translate(-6,-30) scale(1,1)"><g><path fill="none" stroke="none"/><text fill="#000000" stroke="none" font-family="Arial" font-size="13px" font-style="normal" font-weight="bold" text-decoration="none" x="347.2900390625" y="571.5">End ride</text></g></g><g transform="translate(-6,-30) scale(1,1)"><path fill="#C0C0C0" stroke="none" d="M 367 659.5 C 367 652.59644 372.59644 647 379.5 647 C 386.40356 647 392 652.59644 392 659.5 C 392 666.40356 386.40356 672 379.5 672 C 372.59644 672 367 666.40356 367 659.5 Z" opacity="0.2"/></g><g transform="translate(-6,-30) scale(1,1)"><path fill="none" stroke="#000000" d="M 360 652.5 C 360 645.59644 365.59644 640 372.5 640 C 379.40356 640 385 645.59644 385 652.5 C 385 659.40356 379.40356 665 372.5 665 C 365.59644 665 360 659.40356 360 652.5 Z" stroke-miterlimit="10"/></g><g transform="translate(-6,-30) scale(1,1)"><path fill="#000000" stroke="none" d="M 365 652.5 C 365 648.357864 368.357864 645 372.5 645 C 376.642136 645 380 648.357864 380 652.5 C 380 656.642136 376.642136 660 372.5 660 C 368.357864 660 365 656.642136 365 652.5 Z"/></g></g></svg>