<svg version="1.1" xmlns="http://www.w3.org/2000/svg" xmlns:xlink="http://www.w3.org/1999/xlink" width="777" height="795"><defs/><g><g transform="translate(-62,-14) scale(1,1)"><path fill="#ffffff" stroke="none" d="M 111.82072727272728 49.68 C 111.82072727272728 44.886167936 115.70656959767274 41 120.5 41 C 125.29343040232726 41 129.17927272727272 44.886167936 129.17927272727272 49.68 C 129.17927272727272 54.473832064 125.29343040232726 58.36 120.5 58.36 C 115.70656959767274 58.36 111.82072727272728 54.473832064 111.82072727272728 49.68 Z"/></g><g transform="translate(-62,-14) scale(1,1)"><path fill="none" stroke="#000000" d="M 111.82072727272728 49.68 C 111.82072727272728 44.886167936 115.70656959767274 41 120.5 41 C 125.29343040232726 41 129.17927272727272 44.886167936 129.17927272727272 49.68 C 129.17927272727272 54.473832064 125.29343040232726 58.36 120.5 58.36 C 115.70656959767274 58.36 111.82072727272728 54.473832064 111.82072727272728 49.68 Z" stroke-miterlimit="10"/></g><g transform="translate(-62,-14) scale(1,1)"><path fill="none" stroke="#000000" d="M 120.5 58.36 L 120.5 75.64" stroke-miterlimit="10"/></g><g transform="translate(-62,-14) scale(1,1)"><path fill="none" stroke="#000000" d="M 111.31018181818183 64.84 L 129.68981818181817 64.84" stroke-miterlimit="10"/></g><g transform="translate(-62,-14) scale(1,1)"><path fill="none" stroke="#000000" d="M 120.5 75.64 L 107.73636363636365 93" stroke-miterlimit="10"/></g><g transform="translate(-62,-14) scale(1,1)"><path fill="none" stroke="#000000" d="M 120.5 75.64 L 133.26363636363635 93" stroke-miterlimit="10"/></g><g transform="translate(-62,-14) scale(1,1)"><g><path fill="none" stroke="none"/><text fill="#000000" stroke="none" font-family="Arial" font-size="13px" font-style="normal" font-weight="bold" text-decoration="none" x="103.158203125" y="113.5">Guest</text></g></g><g transform="translate(-62,-14) scale(1,1)"><path fill="#ffffff" stroke="none" d="M 164.70158664772728 449.68 C 164.70158664772728 444.886167936 168.58742897267274 441 173.380859375 441 C 178.17428977732726 441 182.06013210227272 444.886167936 182.06013210227272 449.68 C 182.06013210227272 454.473832064 178.17428977732726 458.36 173.380859375 458.36 C 168.58742897267274 458.36 164.70158664772728 454.473832064 164.70158664772728 449.68 Z"/></g><g transform="translate(-62,-14) scale(1,1)"><path fill="none" stroke="#000000" d="M 164.70158664772728 449.68 C 164.70158664772728 444.886167936 168.58742897267274 441 173.380859375 441 C 178.17428977732726 441 182.06013210227272 444.886167936 182.06013210227272 449.68 C 182.06013210227272 454.473832064 178.17428977732726 458.36 173.380859375 458.36 C 168.58742897267274 458.36 164.70158664772728 454.473832064 164.70158664772728 449.68 Z" stroke-miterlimit="10"/></g><g transform="translate(-62,-14) scale(1,1)"><path fill="none" stroke="#000000" d="M 173.380859375 458.36 L 173.380859375 475.64" stroke-miterlimit="10"/></g><g transform="translate(-62,-14) scale(1,1)"><path fill="none" stroke="#000000" d="M 164.19104119318183 464.84 L 182.57067755681817 464.84" stroke-miterlimit="10"/></g><g transform="translate(-62,-14) scale(1,1)"><path fill="none" stroke="#000000" d="M 173.380859375 475.64 L 160.61722301136365 493" stroke-miterlimit="10"/></g><g transform="translate(-62,-14) scale(1,1)"><path fill="none" stroke="#000000" d="M 173.380859375 475.64 L 186.14449573863635 493" stroke-miterlimit="10"/></g><g transform="translate(-62,-14) scale(1,1)"><g><path fill="none" stroke="none"/><text fill="#000000" stroke="none" font-family="Arial" font-size="13px" font-style="normal" font-weight="bold" text-decoration="none" x="142.305908203125" y="513.5">Passenger</text></g></g><g transform="translate(-62,-14) scale(1,1)"><path fill="#C0C0C0" stroke="none" d="M 279 51 C 279 39.954304 306.7583424 31 341 31 C 375.2416576 31 403 39.954304 403 51 C 403 62.045696 375.2416576 71 341 71 C 306.7583424 71 279 62.045696 279 51 Z" opacity="0.2"/></g><g transform="translate(-62,-14) scale(1,1)"><path fill="#ffffff" stroke="none" d="M 272 44 C 272 32.954304 299.7583424 24 334 24 C 368.2416576 24 396 32.954304 396 44 C 396 55.045696 368.2416576 64 334 64 C 299.7583424 64 272 55.045696 272 44 Z"/></g><g transform="translate(-62,-14) scale(1,1)"><path fill="none" stroke="#000000" d="M 272 44 C 272 32.954304 299.7583424 24 334 24 C 368.2416576 24 396 32.954304 396 44 C 396 55.045696 368.2416576 64 334 64 C 299.7583424 64 272 55.045696 272 44 Z" stroke-miterlimit="10"/></g><g transform="translate(-62,-14) scale(1,1)"><g><path fill="none" stroke="none"/><text fill="#000000" stroke="none" font-family="Arial" font-size="13px" font-style="normal" font-weight="bold" text-decoration="none" x="318.095947265625" y="51">Login</text></g></g><g transform="translate(-62,-14) scale(1,1)"><path fill="#C0C0C0" stroke="none" d="M 271 131 C 271 119.95430400000001 299.6537728 111 335 111 C 370.3462272 111 399 119.95430400000001 399 131 C 399 142.045696 370.3462272 151 335 151 C 299.6537728 151 271 142.045696 271 131 Z" opacity="0.2"/></g><g transform="translate(-62,-14) scale(1,1)"><path fill="#ffffff" stroke="none" d="M 264 124 C 264 112.95430400000001 292.6537728 104 328 104 C 363.3462272 104 392 112.95430400000001 392 124 C 392 135.045696 363.3462272 144 328 144 C 292.6537728 144 264 135.045696 264 124 Z"/></g><g transform="translate(-62,-14) scale(1,1)"><path fill="none" stroke="#000000" d="M 264 124 C 264 112.95430400000001 292.6537728 104 328 104 C 363.3462272 104 392 112.95430400000001 392 124 C 392 135.045696 363.3462272 144 328 144 C 292.6537728 144 264 135.045696 264 124 Z" stroke-miterlimit="10"/></g><g transform="translate(-62,-14) scale(1,1)"><g><path fill="none" stroke="none"/><text fill="#000000" stroke="none" font-family="Arial" font-size="13px" font-style="normal" font-weight="bold" text-decoration="none" x="304.513671875" y="131">SIgn Up</text></g></g><g transform="translate(-62,-14) scale(1,1)"><path fill="#C0C0C0" stroke="none" d="M 255 578.5 C 255 567.7304464 281.6390544 559 314.5 559 C 347.3609456 559 374 567.7304464 374 578.5 C 374 589.2695536 347.3609456 598 314.5 598 C 281.6390544 598 255 589.2695536 255 578.5 Z" opacity="0.2"/></g><g transform="translate(-62,-14) scale(1,1)"><path fill="#ffffff" stroke="none" d="M 248 571.5 C 248 560.7304464 274.6390544 552 307.5 552 C 340.3609456 552 367 560.7304464 367 571.5 C 367 582.2695536 340.3609456 591 307.5 591 C 274.6390544 591 248 582.2695536 248 571.5 Z"/></g><g transform="translate(-62,-14) scale(1,1)"><path fill="none" stroke="#000000" d="M 248 571.5 C 248 560.7304464 274.6390544 552 307.5 552 C 340.3609456 552 367 560.7304464 367 571.5 C 367 582.2695536 340.3609456 591 307.5 591 C 274.6390544 591 248 582.2695536 248 571.5 Z" stroke-miterlimit="10"/></g><g transform="translate(-62,-14) scale(1,1)"><g><path fill="none" stroke="none"/><text fill="#000000" stroke="none" font-family="Arial" font-size="13px" font-style="normal" font-weight="bold" text-decoration="none" x="282.21728515625" y="578.5">Call Taxi</text></g></g><g transform="translate(-62,-14) scale(1,1)"><path fill="#C0C0C0" stroke="none" d="M 271 488.5 C 271 478.835016 300.101488 471 336 471 C 371.898512 471 401 478.835016 401 488.5 C 401 498.164984 371.898512 506 336 506 C 300.101488 506 271 498.164984 271 488.5 Z" opacity="0.2"/></g><g transform="translate(-62,-14) scale(1,1)"><path fill="#ffffff" stroke="none" d="M 264 481.5 C 264 471.835016 293.101488 464 329 464 C 364.898512 464 394 471.835016 394 481.5 C 394 491.164984 364.898512 499 329 499 C 293.101488 499 264 491.164984 264 481.5 Z"/></g><g transform="translate(-62,-14) scale(1,1)"><path fill="none" stroke="#000000" d="M 264 481.5 C 264 471.835016 293.101488 464 329 464 C 364.898512 464 394 471.835016 394 481.5 C 394 491.164984 364.898512 499 329 499 C 293.101488 499 264 491.164984 264 481.5 Z" stroke-miterlimit="10"/></g><g transform="translate(-62,-14) scale(1,1)"><g><path fill="none" stroke="none"/><text fill="#000000" stroke="none" font-family="Arial" font-size="13px" font-style="normal" font-weight="bold" text-decoration="none" x="290.7109375" y="488.5">Reserve Taxi</text></g></g><g transform="translate(-62,-14) scale(1,1)"><path fill="#C0C0C0" stroke="none" d="M 175 308.5 C 175 296.6258768 201.6390544 287 234.5 287 C 267.3609456 287 294 296.6258768 294 308.5 C 294 320.3741232 267.3609456 330 234.5 330 C 201.6390544 330 175 320.3741232 175 308.5 Z" opacity="0.2"/></g><g transform="translate(-62,-14) scale(1,1)"><path fill="#ffffff" stroke="none" d="M 168 301.5 C 168 289.6258768 194.6390544 280 227.5 280 C 260.3609456 280 287 289.6258768 287 301.5 C 287 313.3741232 260.3609456 323 227.5 323 C 194.6390544 323 168 313.3741232 168 301.5 Z"/></g><g transform="translate(-62,-14) scale(1,1)"><path fill="none" stroke="#000000" d="M 168 301.5 C 168 289.6258768 194.6390544 280 227.5 280 C 260.3609456 280 287 289.6258768 287 301.5 C 287 313.3741232 260.3609456 323 227.5 323 C 194.6390544 323 168 313.3741232 168 301.5 Z" stroke-miterlimit="10"/></g><g transform="translate(-62,-14) scale(1,1)"><g><path fill="none" stroke="none"/><text fill="#000000" stroke="none" font-family="Arial" font-size="13px" font-style="normal" font-weight="bold" text-decoration="none" x="198.60546875" y="308.5">My Profile</text></g></g><g transform="translate(-62,-14) scale(1,1)"><path fill="#C0C0C0" stroke="none" d="M 415 245 C 415 232.8497344 440.743624 223 472.5 223 C 504.256376 223 530 232.8497344 530 245 C 530 257.1502656 504.256376 267 472.5 267 C 440.743624 267 415 257.1502656 415 245 Z" opacity="0.2"/></g><g transform="translate(-62,-14) scale(1,1)"><path fill="#ffffff" stroke="none" d="M 408 238 C 408 225.8497344 433.743624 216 465.5 216 C 497.256376 216 523 225.8497344 523 238 C 523 250.1502656 497.256376 260 465.5 260 C 433.743624 260 408 250.1502656 408 238 Z"/></g><g transform="translate(-62,-14) scale(1,1)"><path fill="none" stroke="#000000" d="M 408 238 C 408 225.8497344 433.743624 216 465.5 216 C 497.256376 216 523 225.8497344 523 238 C 523 250.1502656 497.256376 260 465.5 260 C 433.743624 260 408 250.1502656 408 238 Z" stroke-miterlimit="10"/></g><g transform="translate(-62,-14) scale(1,1)"><g><path fill="none" stroke="none"/><text fill="#000000" stroke="none" font-family="Arial" font-size="13px" font-style="normal" font-weight="bold" text-decoration="none" x="444.5400390625" y="245">Update</text></g></g><g transform="translate(-62,-14) scale(1,1)"><path fill="#C0C0C0" stroke="none" d="M 415 309 C 415 296.8497344 441.862912 287 475 287 C 508.137088 287 535 296.8497344 535 309 C 535 321.1502656 508.137088 331 475 331 C 441.862912 331 415 321.1502656 415 309 Z" opacity="0.2"/></g><g transform="translate(-62,-14) scale(1,1)"><path fill="#ffffff" stroke="none" d="M 408 302 C 408 289.8497344 434.862912 280 468 280 C 501.137088 280 528 289.8497344 528 302 C 528 314.1502656 501.137088 324 468 324 C 434.862912 324 408 314.1502656 408 302 Z"/></g><g transform="translate(-62,-14) scale(1,1)"><path fill="none" stroke="#000000" d="M 408 302 C 408 289.8497344 434.862912 280 468 280 C 501.137088 280 528 289.8497344 528 302 C 528 314.1502656 501.137088 324 468 324 C 434.862912 324 408 314.1502656 408 302 Z" stroke-miterlimit="10"/></g><g transform="translate(-62,-14) scale(1,1)"><g><path fill="none" stroke="none"/><text fill="#000000" stroke="none" font-family="Arial" font-size="13px" font-style="normal" font-weight="bold" text-decoration="none" x="449.2109375" y="309">Delete</text></g></g><g transform="translate(-62,-14) scale(1,1)"><path fill="none" stroke="#000000" d="M 407 253 L 288 285" stroke-miterlimit="10" stroke-dasharray="3"/></g><g transform="translate(-62,-14) scale(1,1)"><path fill="none" stroke="#000000" d="M 296.7208969815239 278.29582549170686 L 288 285 L 298.9071726507369 286.42603813659275" stroke-miterlimit="10"/></g><g transform="translate(-62,-14) scale(1,1)"><g><path fill="none" stroke="none"/><text fill="#000000" stroke="none" font-family="Arial" font-size="13px" font-style="normal" font-weight="normal" text-decoration="none" x="316" y="264">«extend»</text></g></g><g transform="translate(-62,-14) scale(1,1)"><path fill="#ffffff" stroke="none" d="M 87.82072727272727 625.6800000000001 C 87.82072727272727 620.8861679360001 91.70656959767273 617 96.5 617 C 101.29343040232727 617 105.17927272727273 620.8861679360001 105.17927272727273 625.6800000000001 C 105.17927272727273 630.473832064 101.29343040232727 634.36 96.5 634.36 C 91.70656959767273 634.36 87.82072727272727 630.473832064 87.82072727272727 625.6800000000001 Z"/></g><g transform="translate(-62,-14) scale(1,1)"><path fill="none" stroke="#000000" d="M 87.82072727272727 625.6800000000001 C 87.82072727272727 620.8861679360001 91.70656959767273 617 96.5 617 C 101.29343040232727 617 105.17927272727273 620.8861679360001 105.17927272727273 625.6800000000001 C 105.17927272727273 630.473832064 101.29343040232727 634.36 96.5 634.36 C 91.70656959767273 634.36 87.82072727272727 630.473832064 87.82072727272727 625.6800000000001 Z" stroke-miterlimit="10"/></g><g transform="translate(-62,-14) scale(1,1)"><path fill="none" stroke="#000000" d="M 96.5 634.36 L 96.5 651.64" stroke-miterlimit="10"/></g><g transform="translate(-62,-14) scale(1,1)"><path fill="none" stroke="#000000" d="M 87.31018181818182 640.84 L 105.68981818181818 640.84" stroke-miterlimit="10"/></g><g transform="translate(-62,-14) scale(1,1)"><path fill="none" stroke="#000000" d="M 96.5 651.64 L 83.73636363636363 669" stroke-miterlimit="10"/></g><g transform="translate(-62,-14) scale(1,1)"><path fill="none" stroke="#000000" d="M 96.5 651.64 L 109.26363636363637 669" stroke-miterlimit="10"/></g><g transform="translate(-62,-14) scale(1,1)"><g><path fill="none" stroke="none"/><text fill="#000000" stroke="none" font-family="Arial" font-size="13px" font-style="normal" font-weight="bold" text-decoration="none" x="79.167724609375" y="689.5">Driver</text></g></g><g transform="translate(-62,-14) scale(1,1)"><path fill="#C0C0C0" stroke="none" d="M 367 782.5 C 367 769.5213072 406.17508 759 454.5 759 C 502.82492 759 542 769.5213072 542 782.5 C 542 795.4786928 502.82492 806 454.5 806 C 406.17508 806 367 795.4786928 367 782.5 Z" opacity="0.2"/></g><g transform="translate(-62,-14) scale(1,1)"><path fill="#ffffff" stroke="none" d="M 360 775.5 C 360 762.5213072 399.17508 752 447.5 752 C 495.82492 752 535 762.5213072 535 775.5 C 535 788.4786928 495.82492 799 447.5 799 C 399.17508 799 360 788.4786928 360 775.5 Z"/></g><g transform="translate(-62,-14) scale(1,1)"><path fill="none" stroke="#000000" d="M 360 775.5 C 360 762.5213072 399.17508 752 447.5 752 C 495.82492 752 535 762.5213072 535 775.5 C 535 788.4786928 495.82492 799 447.5 799 C 399.17508 799 360 788.4786928 360 775.5 Z" stroke-miterlimit="10"/></g><g transform="translate(-62,-14) scale(1,1)"><g><path fill="none" stroke="none"/><text fill="#000000" stroke="none" font-family="Arial" font-size="13px" font-style="normal" font-weight="bold" text-decoration="none" x="406.306884765625" y="782.5">Update Status</text></g></g><g transform="translate(-62,-14) scale(1,1)"><path fill="none" stroke="#000000" d="M 122 664 L 377 751" stroke-miterlimit="10"/></g><g transform="translate(-62,-14) scale(1,1)"><path fill="none" stroke="#000000" d="M 366.0224545032651 751.702491898256 L 377 751 L 368.7409663534895 743.7344399234603" stroke-miterlimit="10"/></g><g transform="translate(-62,-14) scale(1,1)"><path fill="none" stroke="#000000" d="M 212 506 L 278 551" stroke-miterlimit="10"/></g><g transform="translate(-62,-14) scale(1,1)"><path fill="none" stroke="#000000" d="M 267.23194379062204 548.7530096858961 L 278 551 L 271.9746965225142 541.7969723457876" stroke-miterlimit="10"/></g><g transform="translate(-62,-14) scale(1,1)"><path fill="none" stroke="#000000" d="M 146 85 L 263 110" stroke-miterlimit="10"/></g><g transform="translate(-62,-14) scale(1,1)"><path fill="none" stroke="#000000" d="M 252.18205719316342 111.9930161635102 L 263 110 L 253.94128403856516 103.7598345270301" stroke-miterlimit="10"/></g><g transform="translate(-62,-14) scale(1,1)"><path fill="none" stroke="#000000" d="M 408 301 L 287 301" stroke-miterlimit="10" stroke-dasharray="3"/></g><g transform="translate(-62,-14) scale(1,1)"><path fill="none" stroke="#000000" d="M 297.16267485762415 296.790482243984 L 287 301 L 297.16267485762415 305.209517756016" stroke-miterlimit="10"/></g><g transform="translate(-62,-14) scale(1,1)"><g><path fill="none" stroke="none"/><text fill="#000000" stroke="none" font-family="Arial" font-size="13px" font-style="normal" font-weight="normal" text-decoration="none" x="279" y="339">«extend»</text></g></g><g transform="translate(-62,-14) scale(1,1)"><path fill="#C0C0C0" stroke="none" d="M 479 635 C 479 619.5360256 518.3989376 607 567 607 C 615.6010624 607 655 619.5360256 655 635 C 655 650.4639744 615.6010624 663 567 663 C 518.3989376 663 479 650.4639744 479 635 Z" opacity="0.2"/></g><g transform="translate(-62,-14) scale(1,1)"><path fill="#ffffff" stroke="none" d="M 472 628 C 472 612.5360256 511.3989376 600 560 600 C 608.6010624 600 648 612.5360256 648 628 C 648 643.4639744 608.6010624 656 560 656 C 511.3989376 656 472 643.4639744 472 628 Z"/></g><g transform="translate(-62,-14) scale(1,1)"><path fill="none" stroke="#000000" d="M 472 628 C 472 612.5360256 511.3989376 600 560 600 C 608.6010624 600 648 612.5360256 648 628 C 648 643.4639744 608.6010624 656 560 656 C 511.3989376 656 472 643.4639744 472 628 Z" stroke-miterlimit="10"/></g><g transform="translate(-62,-14) scale(1,1)"><g><path fill="none" stroke="none"/><text fill="#000000" stroke="none" font-family="Arial" font-size="13px" font-style="normal" font-weight="bold" text-decoration="none" x="512.671875" y="635">Ride Notification</text></g></g><g transform="translate(-62,-14) scale(1,1)"><path fill="none" stroke="#000000" d="M 471 608 L 368 585" stroke-miterlimit="10" stroke-dasharray="3"/></g><g transform="translate(-62,-14) scale(1,1)"><path fill="none" stroke="#000000" d="M 378.8357961206645 583.1064524216717 L 368 585 L 377.00100524961204 591.3231245833415" stroke-miterlimit="10"/></g><g transform="translate(-62,-14) scale(1,1)"><g><path fill="none" stroke="none"/><text fill="#000000" stroke="none" font-family="Arial" font-size="13px" font-style="normal" font-weight="normal" text-decoration="none" x="438" y="597">«include»</text></g></g><g transform="translate(-62,-14) scale(1,1)"><path fill="none" stroke="#000000" d="M 122 653 L 471 633" stroke-miterlimit="10"/></g><g transform="translate(-62,-14) scale(1,1)"><path fill="none" stroke="#000000" d="M 461.0948094672503 637.7840569091437 L 471 633 L 460.61313352331 629.3788116873858" stroke-miterlimit="10"/></g><g transform="translate(-62,-14) scale(1,1)"><path fill="#ffffff" stroke="none" d="M 96.40935031960227 273.68 C 96.40935031960227 268.886167936 100.29519264454773 265 105.088623046875 265 C 109.88205344920227 265 113.76789577414773 268.886167936 113.76789577414773 273.68 C 113.76789577414773 278.473832064 109.88205344920227 282.36 105.088623046875 282.36 C 100.29519264454773 282.36 96.40935031960227 278.473832064 96.40935031960227 273.68 Z"/></g><g transform="translate(-62,-14) scale(1,1)"><path fill="none" stroke="#000000" d="M 96.40935031960227 273.68 C 96.40935031960227 268.886167936 100.29519264454773 265 105.088623046875 265 C 109.88205344920227 265 113.76789577414773 268.886167936 113.76789577414773 273.68 C 113.76789577414773 278.473832064 109.88205344920227 282.36 105.088623046875 282.36 C 100.29519264454773 282.36 96.40935031960227 278.473832064 96.40935031960227 273.68 Z" stroke-miterlimit="10"/></g><g transform="translate(-62,-14) scale(1,1)"><path fill="none" stroke="#000000" d="M 105.088623046875 282.36 L 105.088623046875 299.64" stroke-miterlimit="10"/></g><g transform="translate(-62,-14) scale(1,1)"><path fill="none" stroke="#000000" d="M 95.89880486505682 288.84 L 114.27844122869318 288.84" stroke-miterlimit="10"/></g><g transform="translate(-62,-14) scale(1,1)"><path fill="none" stroke="#000000" d="M 105.088623046875 299.64 L 92.32498668323863 317" stroke-miterlimit="10"/></g><g transform="translate(-62,-14) scale(1,1)"><path fill="none" stroke="#000000" d="M 105.088623046875 299.64 L 117.85225941051137 317" stroke-miterlimit="10"/></g><g transform="translate(-62,-14) scale(1,1)"><g><path fill="none" stroke="none"/><text fill="#000000" stroke="none" font-family="Arial" font-size="13px" font-style="normal" font-weight="bold" text-decoration="none" x="91.364990234375" y="337.5">User</text></g></g><g transform="translate(-62,-14) scale(1,1)"><path fill="none" stroke="#000000" d="M 97 615 L 104 344" stroke-miterlimit="10"/></g><g transform="translate(-62,-14) scale(1,1)"><path fill="#FFFFFF" stroke="none" d="M 111.89139433976004 364.5359658982577 L 104 344 L 95.05893770578776 364.10117919553517"/></g><g transform="translate(-62,-14) scale(1,1)"><path fill="none" stroke="#000000" d="M 111.89139433976004 364.5359658982577 L 104 344 L 95.05893770578776 364.10117919553517 L 111.89139433976004 364.5359658982577" stroke-miterlimit="10"/></g><g transform="translate(-62,-14) scale(1,1)"><path fill="none" stroke="#000000" d="M 158 439 L 121 344" stroke-miterlimit="10"/></g><g transform="translate(-62,-14) scale(1,1)"><path fill="#FFFFFF" stroke="none" d="M 136.2214965125267 359.884144418858 L 121 344 L 120.53143717189408 365.995009635736"/></g><g transform="translate(-62,-14) scale(1,1)"><path fill="none" stroke="#000000" d="M 136.2214965125267 359.884144418858 L 121 344 L 120.53143717189408 365.995009635736 L 136.2214965125267 359.884144418858" stroke-miterlimit="10"/></g><g transform="translate(-62,-14) scale(1,1)"><path fill="none" stroke="#000000" d="M 212 479 L 263 480" stroke-miterlimit="10"/></g><g transform="translate(-62,-14) scale(1,1)"><path fill="none" stroke="#000000" d="M 252.7567544868664 484.00947893842437 L 263 480 L 252.92180188992006 475.5920613826891" stroke-miterlimit="10"/></g><g transform="translate(-62,-14) scale(1,1)"><path fill="none" stroke="#000000" d="M 146 75 L 271 54" stroke-miterlimit="10"/></g><g transform="translate(-62,-14) scale(1,1)"><path fill="none" stroke="#000000" d="M 261.6752000683257 59.83507551230036 L 271 54 L 260.28034927162213 51.53239219858841" stroke-miterlimit="10"/></g><g transform="translate(-62,-14) scale(1,1)"><path fill="none" stroke="#000000" d="M 131 303 L 167 302" stroke-miterlimit="10"/></g><g transform="translate(-62,-14) scale(1,1)"><path fill="none" stroke="#000000" d="M 156.95812962249485 306.49008232902077 L 167 302 L 156.72435769733332 298.0742930232062" stroke-miterlimit="10"/></g><g transform="translate(-62,-14) scale(1,1)"><path fill="#C0C0C0" stroke="none" d="M 735 608 C 735 598.6111584 756.4903296 591 783 591 C 809.5096704 591 831 598.6111584 831 608 C 831 617.3888416 809.5096704 625 783 625 C 756.4903296 625 735 617.3888416 735 608 Z" opacity="0.2"/></g><g transform="translate(-62,-14) scale(1,1)"><path fill="#ffffff" stroke="none" d="M 728 601 C 728 591.6111584 749.4903296 584 776 584 C 802.5096704 584 824 591.6111584 824 601 C 824 610.3888416 802.5096704 618 776 618 C 749.4903296 618 728 610.3888416 728 601 Z"/></g><g transform="translate(-62,-14) scale(1,1)"><path fill="none" stroke="#000000" d="M 728 601 C 728 591.6111584 749.4903296 584 776 584 C 802.5096704 584 824 591.6111584 824 601 C 824 610.3888416 802.5096704 618 776 618 C 749.4903296 618 728 610.3888416 728 601 Z" stroke-miterlimit="10"/></g><g transform="translate(-62,-14) scale(1,1)"><g><path fill="none" stroke="none"/><text fill="#000000" stroke="none" font-family="Arial" font-size="13px" font-style="normal" font-weight="bold" text-decoration="none" x="756.128662109375" y="608">Accept</text></g></g><g transform="translate(-62,-14) scale(1,1)"><path fill="#C0C0C0" stroke="none" d="M 735 728 C 735 718.6111584 757.6096176 711 785.5 711 C 813.3903824 711 836 718.6111584 836 728 C 836 737.3888416 813.3903824 745 785.5 745 C 757.6096176 745 735 737.3888416 735 728 Z" opacity="0.2"/></g><g transform="translate(-62,-14) scale(1,1)"><path fill="#ffffff" stroke="none" d="M 728 721 C 728 711.6111584 750.6096176 704 778.5 704 C 806.3903824 704 829 711.6111584 829 721 C 829 730.3888416 806.3903824 738 778.5 738 C 750.6096176 738 728 730.3888416 728 721 Z"/></g><g transform="translate(-62,-14) scale(1,1)"><path fill="none" stroke="#000000" d="M 728 721 C 728 711.6111584 750.6096176 704 778.5 704 C 806.3903824 704 829 711.6111584 829 721 C 829 730.3888416 806.3903824 738 778.5 738 C 750.6096176 738 728 730.3888416 728 721 Z" stroke-miterlimit="10"/></g><g transform="translate(-62,-14) scale(1,1)"><g><path fill="none" stroke="none"/><text fill="#000000" stroke="none" font-family="Arial" font-size="13px" font-style="normal" font-weight="bold" text-decoration="none" x="756.82275390625" y="728">Decline</text></g></g><g transform="translate(-62,-14) scale(1,1)"><path fill="none" stroke="#000000" d="M 727 607 L 649 617" stroke-miterlimit="10" stroke-dasharray="3"/></g><g transform="translate(-62,-14) scale(1,1)"><path fill="none" stroke="#000000" d="M 658.5448704093693 611.5323269237867 L 649 617 L 659.6154713015133 619.8830138825103" stroke-miterlimit="10"/></g><g transform="translate(-62,-14) scale(1,1)"><g><path fill="none" stroke="none"/><text fill="#000000" stroke="none" font-family="Arial" font-size="13px" font-style="normal" font-weight="normal" text-decoration="none" x="665" y="648">«extend»</text></g></g><g transform="translate(-62,-14) scale(1,1)"><path fill="none" stroke="#000000" d="M 736 703 L 628 657" stroke-miterlimit="10" stroke-dasharray="3"/></g><g transform="translate(-62,-14) scale(1,1)"><path fill="none" stroke="#000000" d="M 638.9994548807423 657.1095094813874 L 628 657 L 635.7003542386351 664.8552240324216" stroke-miterlimit="10"/></g><g transform="translate(-62,-14) scale(1,1)"><g><path fill="none" stroke="none"/><text fill="#000000" stroke="none" font-family="Arial" font-size="13px" font-style="normal" font-weight="normal" text-decoration="none" x="644" y="714">«extend»</text></g></g></g></svg>